# xmcd
#
# Track frame offsets: 
#        150
#        10606
#        20854
#        32790
#        44796
#        56634
#        67575
#        79009
#        91401
#        101780
#        111535
#        125171
#        138890
#        152884
#        164640
#        179406
#        193304
#        204186
#
# Disc length: 2911 seconds
#
# Revision: 1
# Processed by: cddbd v1.5.2PL0 Copyright (c) Steve Scherf et al.
# Submitted via: ExactAudioCopy v1.3
#
DISCID=050b5d12
DTITLE=Loretta Lynn - Gold [CD2)
DYEAR=2006
DGENRE=Country
TTITLE0=You're Looking At Country
TTITLE1=I Wanna Be Free
TTITLE2=One's On The Way
TTITLE3=Rated "X"
TTITLE4=The Pill
TTITLE5=Love Is The Foundation
TTITLE6=Louisiana Woman, Mississippi Man
TTITLE7=Hey Loretta
TTITLE8=They Don't Make 'Em Like My Daddy Anymore
TTITLE9=Trouble In Paradise
TTITLE10=When The Tingle Becomes A Chill
TTITLE11=Somebody Somewhere (Don't Know What He's Missing Tonight)
TTITLE12=She's Got You
TTITLE13=Out Of My Head And Back In My Bed
TTITLE14=I Can't Feel You Anymore
TTITLE15=I Lie
TTITLE16=Silver Threads And Golden Needles
TTITLE17=Country In My Genes
EXTD=
EXTT0=
EXTT1=
EXTT2=
EXTT3=
EXTT4=
EXTT5=
EXTT6=
EXTT7=
EXTT8=
EXTT9=
EXTT10=
EXTT11=
EXTT12=
EXTT13=
EXTT14=
EXTT15=
EXTT16=
EXTT17=
PLAYORDER=
